<?xml version="1.0" encoding="UTF-8" standalone="no"?>
<!-- Generator: Adobe Illustrator 14.0.0, SVG Export Plug-In . SVG Version: 6.00 Build 43363)  -->

<svg
   xmlns:dc="http://purl.org/dc/elements/1.1/"
   xmlns:cc="http://creativecommons.org/ns#"
   xmlns:rdf="http://www.w3.org/1999/02/22-rdf-syntax-ns#"
   xmlns:svg="http://www.w3.org/2000/svg"
   xmlns="http://www.w3.org/2000/svg"
   xmlns:sodipodi="http://sodipodi.sourceforge.net/DTD/sodipodi-0.dtd"
   xmlns:inkscape="http://www.inkscape.org/namespaces/inkscape"
   version="1.1"
   id="Layer_1"
   x="0px"
   y="0px"
   width="26.24"
   height="25.4"
   viewBox="0 0 26.24 25.4"
   enable-background="new 0 0 288.245 33.396"
   xml:space="preserve"
   inkscape:version="0.48.2 r9819"
   sodipodi:docname="geolocator.svg"><metadata
   id="metadata3323"><rdf:RDF><cc:Work
       rdf:about=""><dc:format>image/svg+xml</dc:format><dc:type
         rdf:resource="http://purl.org/dc/dcmitype/StillImage" /><dc:title></dc:title></cc:Work></rdf:RDF></metadata><defs
   id="defs3321" /><sodipodi:namedview
   pagecolor="#ffffff"
   bordercolor="#666666"
   borderopacity="1"
   objecttolerance="10"
   gridtolerance="10"
   guidetolerance="10"
   inkscape:pageopacity="0"
   inkscape:pageshadow="2"
   inkscape:window-width="640"
   inkscape:window-height="480"
   id="namedview3319"
   showgrid="false"
   inkscape:zoom="10.314961"
   inkscape:cx="13.12"
   inkscape:cy="12.7"
   inkscape:window-x="0"
   inkscape:window-y="0"
   inkscape:window-maximized="0"
   inkscape:current-layer="Layer_1" />






<g
   id="g3273"
   transform="translate(-202,0.00400063)"
   style="fill:#0000ff">
	<g
   id="g3275"
   style="fill:#0000ff">
		<path
   d="m 215.031,1.352 c -6.434,0 -11.647,5.215 -11.647,11.646 0,6.435 5.216,11.648 11.647,11.648 6.435,0 11.647,-5.215 11.647,-11.648 C 226.68,6.567 221.466,1.352 215.031,1.352 z m 0.801,20.347 V 17.97 h -1.536 v 3.735 c -4.213,-0.354 -7.583,-3.707 -7.964,-7.912 h 3.787 v -1.537 h -3.79 c 0.358,-4.228 3.737,-7.604 7.968,-7.959 v 3.781 h 1.536 V 4.302 c 4.198,0.386 7.544,3.748 7.901,7.953 h -3.727 v 1.537 h 3.723 c -0.378,4.183 -3.715,7.523 -7.898,7.907 z"
   id="path3277"
   inkscape:connector-curvature="0"
   style="fill:#0000ff" />
	</g>
	<g
   id="g3279"
   style="fill:#0000ff">
		<g
   id="g3281"
   style="fill:#0000ff">
			<path
   d="m 215.031,0.352 c -6.434,0 -11.647,5.215 -11.647,11.646 0,6.435 5.216,11.648 11.647,11.648 6.435,0 11.647,-5.215 11.647,-11.648 C 226.68,5.567 221.466,0.352 215.031,0.352 z m 0.801,20.347 V 16.97 h -1.536 v 3.735 c -4.213,-0.354 -7.583,-3.707 -7.964,-7.912 h 3.787 v -1.537 h -3.79 c 0.358,-4.228 3.737,-7.604 7.968,-7.959 v 3.781 h 1.536 V 3.302 c 4.198,0.386 7.544,3.748 7.901,7.953 h -3.727 v 1.537 h 3.723 c -0.378,4.183 -3.715,7.523 -7.898,7.907 z"
   id="path3283"
   inkscape:connector-curvature="0"
   style="fill:#0000ff" />
		</g>
	</g>
</g>


</svg>